<svg width="28" height="28" viewBox="0 0 28 28" fill="none" xmlns="http://www.w3.org/2000/svg">
<g clip-path="url(#clip0_73_732)">
<path d="M12.278 0C11.424 0 10.605 0.336 10.003 0.938L0.539 10.409C0.182 10.766 0 11.235 0 11.704C0 12.173 0.182 12.642 0.539 12.999L6.741 19.201V8.225C6.741 7.406 7.399 6.741 8.218 6.741H21.259L28 0H12.278Z" fill="#4A21EF"/>
<path d="M6.741 21.259H19.775C20.594 21.259 21.259 20.594 21.259 19.775V8.79199L27.461 14.994C27.818 15.351 28 15.82 28 16.289C28 16.758 27.818 17.227 27.461 17.584L17.997 27.048C17.395 27.65 16.576 27.986 15.722 27.986H0L6.741 21.245V21.259Z" fill="#4A21EF"/>
</g>
<defs>
<clipPath id="clip0_73_732">
<rect width="28" height="28" fill="white"/>
</clipPath>
</defs>
</svg>
